<?xml version="1.0" encoding="UTF-8" standalone="no"?>
<!-- Created with Inkscape (http://www.inkscape.org/) -->
<?xml-stylesheet type="text/css" href="sapienza-map.css" ?>
<svg
   xmlns:dc="http://purl.org/dc/elements/1.1/"
   xmlns:cc="http://creativecommons.org/ns#"
   xmlns:rdf="http://www.w3.org/1999/02/22-rdf-syntax-ns#"
   xmlns:svg="http://www.w3.org/2000/svg"
   xmlns="http://www.w3.org/2000/svg"
   xmlns:sodipodi="http://sodipodi.sourceforge.net/DTD/sodipodi-0.dtd"
   xmlns:inkscape="http://www.inkscape.org/namespaces/inkscape"
   width="210mm"
   height="297mm"
   viewBox="0 0 210 297"
   version="1.1"
   id="svg8"
   inkscape:version="0.92.1 r15371"
   sodipodi:docname="sapienza-final.svg">
  <defs
     id="defs2" />
  <sodipodi:namedview
     id="base"
     pagecolor="#ffffff"
     bordercolor="#666666"
     borderopacity="1.0"
     inkscape:pageopacity="0.0"
     inkscape:pageshadow="2"
     inkscape:zoom="1.4"
     inkscape:cx="288.5405"
     inkscape:cy="538.08495"
     inkscape:document-units="mm"
     inkscape:current-layer="layer2"
     showgrid="false"
     inkscape:window-width="1920"
     inkscape:window-height="1017"
     inkscape:window-x="1358"
     inkscape:window-y="-8"
     inkscape:window-maximized="1" />
  <metadata
     id="metadata5">
    <rdf:RDF>
      <cc:Work
         rdf:about="">
        <dc:format>image/svg+xml</dc:format>
        <dc:type
           rdf:resource="http://purl.org/dc/dcmitype/StillImage" />
        <dc:title></dc:title>
      </cc:Work>
    </rdf:RDF>
  </metadata>
  <g
     inkscape:groupmode="layer"
     id="layer2"
     inkscape:label="Layer 2">
    <path
       style="fill-opacity: 0"
       d="m 14.930059,82.073286 126.196801,-59.106025 33.26651,43.379136 5.97214,130.867883 -17.97749,7.32329 2.11637,35.0663 -28.53102,19.64431 h -8.81989 l 0.13363,-12.42804 H 70.291885 l -0.06682,9.2208 -56.617924,-0.24035 z"
       id="wall"
       inkscape:connector-curvature="0"
       inkscape:label="wall"/>
    <path class="department"
       d="m 62.624591,171.09336 c 0,-0.20321 -0.01495,-0.23934 -0.118118,-0.28543 l -0.118118,-0.0528 v -8.21646 -8.21646 h 8.976934 8.976934 v 8.50189 8.50189 h -8.858816 -8.858816 z"
       id="Pratino"
       inkscape:connector-curvature="0" />
    <rect class="department"
       id="Pratone"
       width="27.545013"
       height="24.615698"
       x="86.273071"
       y="79.002235"/>
    <rect class="department" 
       id="Pratino Est 1"
       width="24.054256"
       height="5.6126599"
       x="116.99723"
       y="153.87717" />
    <rect class="department"
       id="Pratino Est 2"
       width="24.321527"
       height="5.8799295"
       x="116.79678"
       y="169.04472" />
    <rect class="department"
       id="Scienze della Formazione"
       width="23.920622"
       height="8.2853556"
       x="21.080883"
       y="225.43858" />
    <rect class="department"
       id="Architettura"
       width="9.9691219"
       height="14.552083"
       x="15.686011"
       y="120.10714" />
    <rect class="department"
       id="Ortopedia"
       width="4.6103992"
       height="14.566189"
       x="141.92012"
       y="222.36497" />
    <rect class="department"
       id="Pratino Sud"
       width="2.0713389"
       height="17.639788"
       x="150.00502"
       y="219.29138" />
    <rect class="department"
       id="Chirurgia"
       width="4.4099469"
       height="8.3521729"
       x="155.68451"
       y="216.15097" />
    <rect class="department"
       id="Scienze della Comunicazione"
       width="4.6103992"
       height="8.15172"
       x="155.68451"
       y="228.64581" />
    <rect class="department"
       id="Storia dell'arte"
       width="7.2760415"
       height="5.7168899"
       x="166.64024"
       y="98.326263" />
    <rect class="department"
       id="Medicina legale"
       width="7.2760415"
       height="4.7247024"
       x="166.64024"
       y="104.98809" />
    <rect class="department"
       id="Geologia"
       width="15.367997"
       height="12.962572"
       x="43.030396"
       y="161.62799" />
    <rect class="department"
       id="Fisica"
       width="24.321527"
       height="8.5526247"
       x="64.812859"
       y="203.32204" />
    <rect class="department"
       id="Informatica"
       width="7.3499122"
       height="10.958051"
       x="59.734737"
       y="243.81335" />
    <path class="department"
       d="m 142.2542,26.924143 4.54359,5.746294 -10.62397,6.414469 -2.20497,-6.347653 z"
       id="Ingegneria Civile"
       inkscape:connector-curvature="0" />
    <path class="department"
       d="m 148.33459,46.234365 5.47902,-4.142679 8.0849,10.223061 -9.6217,7.216277 -2.40542,-2.472242 3.40768,-2.672697 z"
       id="Ingegneria Edile"
       inkscape:connector-curvature="0" />
    <path class="department"
       d="m 136.64154,40.688521 11.02487,-6.414468 5.07812,6.548104 -5.27857,4.142677 -4.54358,0.53454 -3.20724,1.804069 z"
       id="Ingegneria Industriale"
       inkscape:connector-curvature="0" />
    <path class="department"
       d="m 162.96759,53.918363 -9.55488,6.949008 -2.93997,3.274052 4.34313,4.81085 5.0113,-2.472243 -2.80632,-3.140416 6.21401,-3.407685 3.0736,3.140416 4.00904,-0.200453 z"
       id="Ingegneria Chimica"
       inkscape:connector-curvature="0" />
    <path class="department"
       d="m 119.87038,38.95127 9.95579,-5.211755 2.87315,8.084902 -2.60588,-0.334086 2.60588,9.621702 -1.40317,0.334087 -3.4745,-10.022607 -5.27857,2.939965 z"
       id="Ingegneria Informatica"
       inkscape:connector-curvature="0" />
    <path class="department"
       d="m 132.36523,53.383825 1.73725,-0.868627 9.08717,8.218538 -1.87089,5.011303 -10.35669,-5.545841 2.73951,-2.939965 z"
       id="Ingegneria Gestionale"
       inkscape:connector-curvature="0" />
    <path class="department"
       d="m 86.261238,50.377042 3.274052,6.748555 7.216277,-0.668174 0.200454,-4.744032 5.813109,-3.87541 0.66818,5.879931 7.21627,-0.200451 2.40543,-15.768902 z"
       id="Sociologia"
       inkscape:connector-curvature="0" />
    <path class="department"
       d="m 128.42301,69.754082 2.07134,-2.605876 5.0113,3.140417 3.20723,0.133633 1.93771,2.405427 -5.14494,11.759859 0.26727,2.672694 1.06908,-0.06682 1.13589,1.536797 v 5.612662 h -2.27179 l -0.0668,12.361215 -4.67721,0.0668 -0.0668,-3.54132 h -8.21854 v -2.27179 l 10.55715,0.26727 0.13363,-10.423516 -2.53906,0.06682 2.53906,-11.225319 h 2.73951 l 0.20046,-4.409948 z"
       id="Botanica"
       inkscape:connector-curvature="0" />
    <path class="department"
       d="m 128.62346,88.262499 1.9377,-7.483549 -4.40994,-1.737252 -2.13816,7.951269 z"
       id="Genetica"
       inkscape:connector-curvature="0" />
    <path class="department"
       d="m 141.78648,106.37001 20.78021,-0.13364 0.13363,-29.867366 -12.6953,0.133633 -8.0849,17.773425 z"
       id="Orto Botanico"
       inkscape:connector-curvature="0" />
    <path class="department"
       d="m 116.26224,75.567195 5.54585,-11.693041 -10.42352,-2.806332 -22.317,-0.200451 -9.955792,2.939966 4.744035,11.292136 7.483546,-2.605876 h 17.639791 z"
       id="Economia"
       inkscape:connector-curvature="0" />
    <path class="department"
       d="m 76.639535,54.720172 6.481287,-3.140416 2.53906,5.278572 -6.481286,2.806329 z"
       id="Bar"
       inkscape:connector-curvature="0" />
    <path class="department"
       d="m 60.068824,88.930672 15.167547,0.06682 -5.479026,-21.849284 -15.635266,9.087163 2.138156,5.078121 4.877667,-2.472243 -0.267268,-3.140416 6.548104,-3.407688 2.939965,10.223061 -8.352174,3.407685 z"
       id="Psicologia"
       inkscape:connector-curvature="0" />
    <path class="department"
       d="m 59.2002,90.267019 15.635266,0.200451 0.267272,13.29666 -21.18111,-0.26727 -0.06682,-8.68626 2.806329,0.06682 z"
       id="Ostetricia"
       inkscape:connector-curvature="0" />
    <path class="department"
       d="m 43.564934,101.96006 0.200451,-0.26727 4.209494,-6.481285 -19.377041,-14.900275 -4.409946,6.147199 4.476764,3.741772 -4.744034,7.349913 2.472244,2.472246 -2.138157,2.47224 6.548103,4.74403 1.737252,-2.60587 2.271792,1.80407 4.677217,-7.617187 z"
       id="Biologia"
       inkscape:connector-curvature="0" />
    <path class="department"
       d="m 15.835719,112.78448 8.819895,-0.20046 -1.603618,-2.20497 -2.80633,-0.0668 0.06682,-9.15398 h -4.543582 z"
       id="Biotecnologie"
       inkscape:connector-curvature="0" />
    <path class="department"
       d="m 32.072344,113.78674 4.476763,0.13363 -0.133635,3.27405 33.275057,-0.26727 -0.06682,18.50842 8.886711,0.13363 v -13.69756 l -2.338607,0.13364 -0.334087,-5.14494 4.677214,-0.13364 0.200454,20.44612 -12.962573,0.13364 -0.06682,-2.6727 -2.873147,-0.13363 0.133636,-12.62849 -14.699824,0.13364 0.200451,2.87314 -15.50163,-0.13363 -0.200454,-2.87315 -2.605879,-0.0668 z"
       id="Scienze Politiche"
       inkscape:connector-curvature="0" />
    <path class="department"
       d="m 32.139159,126.14795 18.241145,0.20045 v 8.21854 l -18.174327,-0.20045 z"
       id="Scienze statistiche"
       inkscape:connector-curvature="0" />
    <path class="department"
       d="m 15.768902,144.65637 4.543582,0.13363 0.06682,9.28762 2.605878,1.26953 -0.06682,3.80859 -7.082643,-0.13364 z"
       id="Archeologia"
       inkscape:connector-curvature="0" />
    <path class="department"
       d="m 43.230844,144.65637 -0.200451,15.83572 15.30118,0.10022 -0.06681,-9.6217 -10.456921,-0.16704 -0.03341,-6.04698 z"
       id="Mineralogia"
       inkscape:connector-curvature="0" />
    <path class="department"
       d="m 28.962426,144.4866 13.134671,0.0472 -0.14174,2.4096 -5.575149,-0.0945 0.09449,13.32366 2.976563,0.0472 -0.09449,14.45759 -4.582961,-0.0945 0.141742,-24.85194 -5.858631,-0.0945 z"
       id="Geochimica"
       inkscape:connector-curvature="0" />
    <path class="department"
       d="m 18.237351,163.14918 h 10.29985 l 0.04725,6.52009 2.362353,2.45684 -0.188989,3.44904 -2.267857,2.64583 v 2.78757 l -10.205357,-0.14174 v -2.17336 h 5.575149 l 0.236235,-13.32366 -5.905878,-0.14174 z"
       id="Zoologia"
       inkscape:connector-curvature="0" />
    <path class="department"
       d="m 43.042038,184.78832 15.213541,0.0945 0.141743,17.62314 -15.308038,0.0945 v -2.26785 H 46.0186 l -0.236236,-13.27642 -2.740326,-0.0945 z"
       id="Lingue"
       inkscape:connector-curvature="0" />
    <path class="department"
       d="m 43.089284,206.89992 h 12.520462 v 2.74033 l 3.307292,3.30729 -0.236236,5.57515 -5.197171,6.28385 -3.071058,-0.14174 -5.291667,-9.4494 h -2.173362 z"
       id="Chiesa"
       inkscape:connector-curvature="0" />
    <path class="department"
       d="m 18.237351,191.54464 v 29.52939 l 15.497024,-0.0472 v -4.91369 h -8.362724 l 0.188989,-7.32329 h 3.118304 v -5.33891 l -3.165551,-0.0472 0.188988,-7.1343 h 16.252976 v -4.77195 z"
       id="Neurologia"
       inkscape:connector-curvature="0" />
    <path class="department"
       d="m 21.166666,240.82329 2.598587,0.0472 2.83482,-3.02381 h 2.031624 l 2.882067,2.92932 h 13.418155 l 0.09449,8.69345 -23.859747,-0.37797 z"
       id="Scienze dello Spettacolo"
       inkscape:connector-curvature="0" />
    <path class="department"
       d="m 67.468749,218.90067 0.236236,8.50446 1.842632,-0.0473 v -2.36235 l 0.566965,-0.61421 h 11.055803 l 0.519718,0.66146 v 2.92932 l -0.614212,0.7087 -4.771948,-0.0472 0.04725,1.84264 9.591146,0.0472 -0.04725,-11.43377 z"
       id="Igiene"
       inkscape:connector-curvature="0" />
    <path class="department"
       d="m 76.35119,231.84635 0.04725,1.41741 h 4.346725 l 0.897694,0.94494 0.09449,2.97657 -0.803198,0.94493 h -7.417785 l -1.370163,-1.03943 -0.04725,-2.74033 h -4.393972 v 5.57515 l 15.875,0.0472 1.039434,1.13393 0.04725,2.12611 -0.992188,1.03944 -13.18192,-0.23624 v 1.32292 l 18.331847,0.0472 v -4.77195 l -3.023812,-0.18899 -0.188987,-8.69345 z"
       id="Infermieristica"
       inkscape:connector-curvature="0" />
    <rect class="department"
       id="Aiuola 1"
       width="2.4722431"
       height="24.254709"
       x="92.074356"
       y="187.95403" />
    <rect class="department"
       id="Aiuola 3"
       width="2.4054255"
       height="18.374781"
       x="92.141167"
       y="218.89049" />
    <rect class="department"
       id="Aiuola 4"
       width="2.3386083"
       height="18.307962"
       x="103.16604"
       y="218.75685" />
    <rect class="department"
       id="Aiuola 2"
       width="2.2049735"
       height="24.45516"
       x="103.29967"
       y="187.88721" />
    <path class="department"
       d="m 64.879677,175.9269 v 4.94449 h 10.289876 l 0.935445,0.46772 0.06682,3.20723 -0.601359,0.60136 -10.824416,-0.20045 0.06682,3.60814 12.895755,-0.13364 0.06682,-4.27631 2.739512,0.0668 0.06682,-8.55263 z"
       id="Astronomia"
       inkscape:connector-curvature="0" />
    <path class="department"
       d="m 64.812859,196.03893 0.133636,-6.64833 12.862345,0.0668 v 2.07134 l 11.058276,-0.0334 -0.100226,10.99146 -7.216275,-0.13364 -0.200454,-9.08716 -6.447877,-0.0334 -0.03341,3.10701 z"
       id="Astrofisica"
       inkscape:connector-curvature="0" />
    <rect class="department"
       id="Fontana della Minerva"
       width="11.150297"
       height="5.953125"
       x="94.494049"
       y="159.46391" />
    <path class="department"
       d="m 92.22619,165.51153 1.65223,0.009 0.100227,-6.76526 12.227583,0.0167 0.0835,6.68174 h 1.72055 l -0.0668,-8.30206 -15.568452,-0.0334 z"
       id="Statua della Minerva"
       inkscape:connector-curvature="0" />
    <path class="department"
       d="m 64.879677,141.85004 v 4.87767 l 4.911077,0.0334 0.7684,0.80181 -0.06682,2.43884 9.922383,-0.0334 -0.03341,-9.35443 3.80859,0.0334 v -2.07135 l -5.512433,-0.0668 v 3.50791 z"
       id="Giurisprudenza"
       inkscape:connector-curvature="0" />
    <path class="department"
       d="m 85.258978,138.57598 -0.03341,2.00453 4.510175,-0.0334 0.03341,2.97337 20.613157,0.0668 -0.10022,-3.14042 3.80859,-0.0334 -0.0334,-1.77066 h -3.57473 l 0.10023,-15.53504 -10.49033,-3.24064 -10.390104,3.00678 -0.133636,15.63527 z"
       id="Rettorato"
       inkscape:connector-curvature="0" />
    <path class="department"
       d="m 119.70334,116.82693 13.89801,0.0668 0.10023,20.81361 -1.1359,-0.0334 0.16705,9.08716 h -2.90656 l 0.0668,3.20724 -12.6953,-0.0334 -0.0334,-9.58829 -1.80407,-0.0334 -0.0334,-1.5368 h 4.57699 z"
       id="Lettere"
       inkscape:connector-curvature="0"
       sodipodi:nodetypes="ccccccccccccc" />
    <path class="department"
       d="m 134.63702,117.02738 14.13188,-0.10023 0.36749,29.76715 -1.73725,-0.0668 v -9.05376 l -12.76212,-0.0668 z"
       id="Filosofia"
       inkscape:connector-curvature="0" />
    <rect class="department"
       id="Robotica"
       width="7.8176336"
       height="7.2830944"
       x="155.28358"
       y="123.20799" />
    <path class="department"
       d="m 166.60914,120.03416 7.04923,0.0334 0.20046,18.4416 2.47224,0.10022 0.0334,2.20498 -2.43884,-0.13364 v 0.96886 l 2.40543,2.73951 -0.0334,2.47224 -4.81085,-0.13363 -2.40543,-2.73952 -0.0334,-6.64833 h -2.37202 z"
       id="Chimica analitica"
       inkscape:connector-curvature="0" />
    <path class="department"
       d="m 155.6845,135.33534 6.78196,0.0334 0.0668,8.8199 8.25195,6.41446 -2.23839,5.17835 -7.58377,-5.67948 -5.3788,-0.10022 0.0668,-5.24517 2.83974,0.10023 -2.87315,-6.31424 z"
       id="Fisica applicata"
       inkscape:connector-curvature="0" />
    <path class="department"
       d="m 152.71112,154.17784 7.78423,0.0334 5.47902,6.08039 h 4.94449 l 0.0334,11.49258 -4.87767,0.0668 -4.44336,5.84652 -8.81989,-0.16704 -0.0668,-6.08038 -2.83974,-0.0334 0.0334,-11.12509 2.70611,-0.0334 z"
       id="Matematica"
       inkscape:connector-curvature="0" />
    <path class="department"
       d="m 177.45982,163.47991 1.32292,24.09598 -2.07887,1.27567 -2.03163,-25.22991 z"
       id="Storia"
       inkscape:connector-curvature="0"
       sodipodi:nodetypes="ccccc" />
    <path class="department"
       d="m 158.27753,181.76451 15.35528,0.14174 -0.0945,14.31585 -13.37091,-0.14175 -5.48066,3.68527 -0.0945,11.90625 h -4.58296 l -0.0472,-12.23698 -3.02381,-5.48065 5.05543,-3.16555 2.78758,4.01599 3.59077,-3.827 z"
       id="Farmacologia"
       inkscape:connector-curvature="0" />
    <path class="department"
       d="m 119.62946,178.78794 6.18936,-0.0472 0.14174,17.24516 -1.55915,0.70871 -0.0945,18.09561 h -12.61496 l 0.14174,-23.34003 7.79576,-0.0473 z"
       id="Chimica"
       inkscape:connector-curvature="0" />
    <path class="department"
       d="m 126.90551,178.97693 0.0945,16.91444 1.27567,0.89769 0.0473,17.85937 9.78013,0.14175 -0.0945,-4.72471 -5.24441,-0.0945 -0.0472,-4.25223 h 5.33891 v -8.36273 l -5.33891,-0.0945 -0.0945,-4.016 5.6224,-0.0472 -0.0945,-14.26861 z"
       id="Chimica Industriale"
       inkscape:connector-curvature="0" />
    <path class="department"
       d="m 108.84551,218.89048 18.0407,0.0668 0.0668,5.41221 -10.82441,-0.13363 -0.0668,4.81085 h 8.0849 v 4.27631 l -7.88445,0.20046 -0.20045,4.40994 15.03391,-0.0668 -0.26727,-19.04295 7.41673,0.20045 0.0668,8.55263 h -3.00678 l 0.4009,10.62396 2.33861,0.0668 0.13364,2.60588 h 2.47224 v 5.21175 l -5.14494,-0.0668 -0.13364,11.62622 h -6.949 l -0.20046,-12.22758 h -21.84928 l -0.0668,-4.67722 2.60588,0.13364 z"
       id="Medicina"
       inkscape:connector-curvature="0" />
    <path class="department"
       d="m 188.15774,101.15825 0.26728,8.35217 h 7.88445 l 0.26727,10.28988 -8.28536,-0.0668 0.33409,17.70661 8.01808,-0.0668 0.33409,13.76438 -8.61944,-0.33408 0.20045,8.55262 18.17433,-0.4009 0.13363,-20.24567 -5.94674,-0.26727 0.0668,-28.4642 -5.14494,-8.75308 z"
       id="Mensa"
       inkscape:connector-curvature="0" />
  </g>
</svg>
